<?xml version="1.0" encoding="utf-8"?>
<!-- Generator: Adobe Illustrator 16.0.4, SVG Export Plug-In . SVG Version: 6.00 Build 0)  -->
<!DOCTYPE svg PUBLIC "-//W3C//DTD SVG 1.1//EN" "http://www.w3.org/Graphics/SVG/1.1/DTD/svg11.dtd">
<svg version="1.1" xmlns="http://www.w3.org/2000/svg" xmlns:xlink="http://www.w3.org/1999/xlink" x="0px" y="0px"
	 width="201.369px" height="201.37px" viewBox="0 0 201.369 201.37" enable-background="new 0 0 201.369 201.37"
	 xml:space="preserve">
<g id="red_circle">
</g>
<g id="White_outline">
</g>
<g id="Ninja">
	<g>
		<defs>
			<circle id="SVGID_1_" cx="100.685" cy="100.685" r="100.685"/>
		</defs>
		<clipPath id="SVGID_2_">
			<use xlink:href="#SVGID_1_"  overflow="visible"/>
		</clipPath>
		<circle clip-path="url(#SVGID_2_)" fill="#ED1C24" cx="100.685" cy="100.685" r="100.685"/>
		<path clip-path="url(#SVGID_2_)" fill="#FFFFFF" d="M137.909,298.781c-0.269,0-0.538-0.021-0.807-0.065L-52.724,267.79
			c-2.725-0.443-4.574-3.011-4.132-5.735l19.614-120.401c0.138-0.845,0.48-1.606,0.968-2.241
			c4.518-17.014,30.579-27.496,68.918-27.496c0.391,0,0.784,0.001,1.178,0.003l6.897-42.34c0.139-2.493,0.411-4.996,0.81-7.444
			c4.14-25.414,21.466-44.579,40.302-44.579c1.496,0,3.003,0.122,4.479,0.362c10.116,1.648,18.617,8.631,23.936,19.663
			c5.032,10.436,6.628,23.391,4.496,36.479c-0.018,0.11-0.039,0.224-0.061,0.338c-0.009,0.076-0.019,0.152-0.031,0.228
			l-8.064,49.502c35.322,12.014,56.691,30.297,55.661,47.61c0.264,0.759,0.349,1.593,0.211,2.442l-19.614,120.403
			c-0.213,1.31-0.938,2.48-2.015,3.255C139.973,298.456,138.95,298.781,137.909,298.781z"/>
		<path clip-path="url(#SVGID_2_)" fill="#FFFFFF" d="M158.022,173.299c0.02-0.109,0.046-0.217,0.064-0.327
			c2.644-16.229-20.87-34.257-56.122-45.426l8.75-53.71c0.008-0.052,0.009-0.103,0.017-0.155c0.024-0.142,0.054-0.28,0.077-0.422
			c4.071-24.989-6.81-47.555-24.301-50.404c-17.49-2.85-34.971,15.097-39.042,40.085c-0.395,2.421-0.645,4.817-0.766,7.177
			l-7.636,46.873c-38.053-1.02-67.13,8.67-69.826,25.219c-0.018,0.11-0.028,0.22-0.043,0.33l-0.01-0.001l-0.49-0.08L-50.84,262.365
			l-0.08,0.49l189.339,30.846l0.49,0.08l19.534-119.91l0.08-0.49L158.022,173.299z"/>
		<path clip-path="url(#SVGID_2_)" d="M95.977,164.295c-1.24,7.614-8.417,12.78-16.031,11.54l-35.379-5.764
			c-7.613-1.24-12.781-8.417-11.541-16.031l14.737-90.459c1.24-7.614,8.419-12.78,16.031-11.54l35.379,5.763
			c7.614,1.24,12.78,8.418,11.541,16.032L95.977,164.295z"/>
		
			<ellipse transform="matrix(0.987 0.1608 -0.1608 0.987 11.9784 -11.8374)" clip-path="url(#SVGID_2_)" cx="79.136" cy="68.1" rx="32.089" ry="45.841"/>
		
			<ellipse transform="matrix(0.987 0.1608 -0.1608 0.987 26.1658 -8.1853)" clip-path="url(#SVGID_2_)" cx="63.661" cy="157.59" rx="95.669" ry="38.137"/>
		
			<ellipse transform="matrix(0.987 0.1608 -0.1608 0.987 12.4779 -11.698)" clip-path="url(#SVGID_2_)" fill="#FFFFFF" cx="78.521" cy="71.252" rx="34.046" ry="3.562"/>
		
			<rect x="-41.868" y="157.623" transform="matrix(0.987 0.1608 -0.1608 0.987 35.7717 -5.8127)" clip-path="url(#SVGID_2_)" stroke="#000000" stroke-width="0.993" stroke-miterlimit="10" width="191.339" height="120.992"/>
		
			<rect x="93.553" y="97.391" transform="matrix(0.8615 0.5078 -0.5078 0.8615 119.2189 -54.4096)" clip-path="url(#SVGID_2_)" fill="#FFFFFF" width="131.578" height="187.866"/>
		<g clip-path="url(#SVGID_2_)">
			<path d="M138.624,145.322c0.164,2.351-1.608,4.389-3.958,4.554l-46.157,3.228c-2.351,0.164-4.39-1.607-4.554-3.958l0,0
				c-0.164-2.35,1.607-4.389,3.959-4.553l46.157-3.228C136.42,141.2,138.458,142.973,138.624,145.322L138.624,145.322z"/>
			<path d="M142.351,155.619c0.164,2.351-1.607,4.389-3.959,4.553l-46.156,3.228c-2.351,0.165-4.391-1.607-4.555-3.958l0,0
				c-0.164-2.35,1.609-4.388,3.959-4.553l46.156-3.228C140.149,151.497,142.187,153.269,142.351,155.619L142.351,155.619z"/>
			<path d="M139.097,166.403c0.163,2.351-1.609,4.389-3.96,4.553l-46.157,3.228c-2.351,0.164-4.389-1.607-4.553-3.958l0,0
				c-0.164-2.35,1.608-4.389,3.958-4.553l46.156-3.228C136.894,162.281,138.932,164.054,139.097,166.403L139.097,166.403z"/>
			<path d="M134.842,177.258c0.166,2.35-1.607,4.388-3.959,4.552l-46.157,3.228c-2.349,0.165-4.388-1.606-4.553-3.958l0,0
				c-0.164-2.349,1.608-4.388,3.958-4.552l46.156-3.228C132.64,173.136,134.678,174.908,134.842,177.258L134.842,177.258z"/>
		</g>
		<g clip-path="url(#SVGID_2_)">
			
				<ellipse transform="matrix(0.987 0.1607 -0.1607 0.987 12.9806 -13.6699)" stroke="#000000" stroke-width="0.5721" stroke-miterlimit="10" cx="91.009" cy="73.422" rx="4.268" ry="3.876"/>
			<polygon fill="#FFFFFF" points="85.412,68.744 90.412,73.077 85.579,73.077 			"/>
		</g>
		<g clip-path="url(#SVGID_2_)">
			
				<ellipse transform="matrix(0.987 0.1607 -0.1607 0.987 12.1154 -9.9556)" stroke="#000000" stroke-width="0.5721" stroke-miterlimit="10" cx="67.611" cy="69.93" rx="4.268" ry="3.876"/>
			<polygon fill="#FFFFFF" points="62.015,65.251 67.015,69.584 62.182,69.584 			"/>
		</g>
	</g>
</g>
</svg>
